# Blender 4.3.2
# www.blender.org
mtllib rocas.mtl
o rocas
v -1.129443 -0.459742 1.258683
v -1.123607 0.518138 1.256019
v -1.507586 -0.451894 0.041482
v -1.478359 0.586546 0.065141
v 0.214214 -0.454642 1.347667
v 0.300408 0.549951 1.305670
v 0.650142 -0.402574 -0.599560
v 0.640637 0.622558 -0.518142
v -1.344997 -0.560448 0.915658
v -1.197705 0.025476 1.276821
v -1.344958 0.639778 0.889542
v -1.487408 0.087398 -0.281898
v -0.260375 -0.523161 -0.886915
v -0.303800 0.700425 -0.774987
v 0.740170 0.089213 -0.687950
v 0.605616 -0.548416 0.878709
v 0.675548 0.706091 0.718867
v 0.408059 0.050651 1.388093
v -0.597217 -0.568839 1.449608
v -0.609141 0.627071 1.448587
v -1.522172 0.038567 0.813906
v -0.159697 0.060794 -1.097883
v 0.945069 0.077412 0.673451
v -0.612942 0.025635 1.564295
v -0.818394 -0.786711 1.119504
v -0.788010 0.886623 1.081587
vn -0.8153 -0.1412 0.5616
vn -0.8127 0.1586 0.5606
vn -0.9877 0.1478 0.0504
vn -0.9917 -0.1162 0.0551
vn -0.5408 -0.3132 -0.7807
vn -0.5182 0.3872 -0.7626
vn 0.3181 0.4226 -0.8487
vn 0.3639 -0.3090 -0.8787
vn 0.9244 -0.3744 -0.0730
vn 0.9434 0.3174 -0.0958
vn 0.7685 0.2759 0.5774
vn 0.7511 -0.2661 0.6042
vn 0.1602 -0.1632 0.9735
vn 0.1651 0.1898 0.9678
vn -0.4079 0.1416 0.9020
vn -0.4014 -0.1425 0.9047
vn -0.2247 -0.9620 -0.1551
vn 0.1531 -0.9842 -0.0892
vn 0.2017 -0.8972 0.3929
vn -0.4361 -0.6704 0.6003
vn 0.1033 0.9921 -0.0715
vn -0.2446 0.9624 -0.1180
vn -0.4373 0.6780 0.5909
vn 0.1866 0.8860 0.4245
vt 0.375000 0.000000
vt 0.500000 0.000000
vt 0.500000 0.125000
vt 0.375000 0.125000
vt 0.625000 0.000000
vt 0.625000 0.125000
vt 0.625000 0.250000
vt 0.500000 0.250000
vt 0.375000 0.250000
vt 0.500000 0.375000
vt 0.375000 0.375000
vt 0.625000 0.375000
vt 0.625000 0.500000
vt 0.500000 0.500000
vt 0.375000 0.500000
vt 0.500000 0.625000
vt 0.375000 0.625000
vt 0.625000 0.625000
vt 0.625000 0.750000
vt 0.500000 0.750000
vt 0.375000 0.750000
vt 0.500000 0.875000
vt 0.375000 0.875000
vt 0.625000 0.875000
vt 0.625000 1.000000
vt 0.500000 1.000000
vt 0.375000 1.000000
vt 0.125000 0.500000
vt 0.250000 0.500000
vt 0.250000 0.625000
vt 0.125000 0.625000
vt 0.250000 0.750000
vt 0.125000 0.750000
vt 0.750000 0.500000
vt 0.750000 0.625000
vt 0.875000 0.500000
vt 0.875000 0.625000
vt 0.875000 0.750000
vt 0.750000 0.750000
s 0
f 1/1/1 10/2/1 21/3/1 9/4/1
f 10/2/2 2/5/2 11/6/2 21/3/2
f 21/3/3 11/6/3 4/7/3 12/8/3
f 9/4/4 21/3/4 12/8/4 3/9/4
f 3/9/5 12/8/5 22/10/5 13/11/5
f 12/8/6 4/7/6 14/12/6 22/10/6
f 22/10/7 14/12/7 8/13/7 15/14/7
f 13/11/8 22/10/8 15/14/8 7/15/8
f 7/15/9 15/14/9 23/16/9 16/17/9
f 15/14/10 8/13/10 17/18/10 23/16/10
f 23/16/11 17/18/11 6/19/11 18/20/11
f 16/17/12 23/16/12 18/20/12 5/21/12
f 5/21/13 18/20/13 24/22/13 19/23/13
f 18/20/14 6/19/14 20/24/14 24/22/14
f 24/22/15 20/24/15 2/25/15 10/26/15
f 19/23/16 24/22/16 10/26/16 1/27/16
f 3/28/17 13/29/17 25/30/17 9/31/17
f 13/29/18 7/15/18 16/17/18 25/30/18
f 25/30/19 16/17/19 5/21/19 19/32/19
f 9/31/20 25/30/20 19/32/20 1/33/20
f 8/13/21 14/34/21 26/35/21 17/18/21
f 14/34/22 4/36/22 11/37/22 26/35/22
f 26/35/23 11/37/23 2/38/23 20/39/23
f 17/18/24 26/35/24 20/39/24 6/19/24
o 
v 0.000000 0.000000 0.000000
v 0.000000 0.000000 0.000000
