# Blender 4.3.2
# www.blender.org
mtllib arbol.mtl
o arbol
v 0.333001 3.544732 0.333001
v -0.333001 3.544733 -0.333001
v -1.287850 -5.901867 -1.287850
v -0.333001 3.544732 0.333001
v 1.287850 -5.901867 1.287850
v -1.287850 -5.901867 1.287850
v 1.287850 -5.901867 -1.287850
v 0.333001 3.544732 -0.333001
v -0.444002 2.727093 -0.444002
v -0.444002 1.636908 -0.444002
v -0.444002 0.546723 -0.444002
v -0.457362 -1.055163 -0.457362
v -0.750306 -4.169786 -0.750306
v -0.750306 -4.169786 0.750306
v -0.457362 -1.055163 0.457362
v -0.444002 0.546723 0.444002
v -0.444002 1.636908 0.444002
v -0.444002 2.727093 0.444002
v 0.444002 2.727093 -0.444002
v 0.444002 1.636908 -0.444002
v 0.444002 0.546723 -0.444002
v 0.457362 -1.055163 -0.457362
v 0.750306 -4.169786 -0.750306
v 0.444002 2.727093 0.444002
v 0.444002 1.636908 0.444002
v 0.444002 0.546723 0.444002
v 0.457362 -1.055163 0.457362
v 0.750306 -4.169786 0.750306
v -1.660662 -5.554299 -1.660662
v 1.660662 -5.554300 -1.660662
v 1.660662 -5.554299 1.660662
v -1.660662 -5.554299 1.660662
v 2.041614 7.125667 -2.041614
v 2.041614 3.042438 -2.041614
v 2.041614 7.125667 2.041614
v 2.041614 3.042438 2.041614
v -2.041614 7.125667 -2.041614
v -2.041614 3.042438 -2.041614
v -2.041614 7.125667 2.041614
v -2.041614 3.042438 2.041614
v -1.684345 -5.797793 -1.684345
v 0.000000 -5.919546 -1.551281
v 0.405974 3.604457 0.000000
v -0.405974 3.604457 -0.000000
v -0.424988 3.237697 0.424988
v 1.551281 -5.919545 0.000000
v 1.684345 -5.797792 -1.684345
v -1.551281 -5.919546 -0.000000
v 0.000000 3.604457 -0.405974
v 1.684345 -5.797793 1.684345
v 0.000000 -5.919545 1.551281
v -0.000000 3.604457 0.405974
v -0.424988 3.237697 -0.424988
v -0.444002 2.182001 -0.444002
v -0.444002 1.091815 -0.444002
v -0.445672 -0.062332 -0.445672
v -0.514021 -2.620861 -0.514021
v -1.233373 -5.101899 1.233373
v -0.514021 -2.620861 0.514021
v -0.445672 -0.062332 0.445672
v -0.444002 1.091816 0.444002
v -0.444002 2.182001 0.444002
v 0.424988 3.237697 -0.424988
v 0.444002 2.182001 -0.444002
v 0.444002 1.091815 -0.444002
v 0.445672 -0.062332 -0.445672
v 0.514021 -2.620861 -0.514021
v 0.424988 3.237697 0.424988
v 0.444002 2.182001 0.444002
v 0.444002 1.091815 0.444002
v 0.445672 -0.062332 0.445672
v 0.514021 -2.620861 0.514021
v 1.031671 -4.169785 -0.000000
v 0.628873 -1.055163 -0.000000
v 0.610502 0.546723 -0.000000
v 0.610502 1.636908 -0.000000
v 0.610502 2.727093 0.000000
v 0.000000 -4.169786 -1.031671
v 0.000000 -1.055163 -0.628873
v 0.000000 0.546723 -0.610502
v 0.000000 1.636908 -0.610502
v 0.000000 2.727093 -0.610502
v 0.000000 -4.169785 1.031671
v 0.000000 -1.055163 0.628873
v 0.000000 0.546723 0.610502
v 0.000000 1.636908 0.610502
v 0.000000 2.727093 0.610502
v -1.031671 -4.169785 0.000000
v -0.628873 -1.055163 0.000000
v -0.610502 0.546723 -0.000000
v -0.610502 1.636908 -0.000000
v -0.610502 2.727093 0.000000
v -1.233373 -5.101899 -1.233373
v 1.233373 -5.101899 -1.233373
v 1.233373 -5.101899 1.233373
v -1.684345 -5.797793 1.684345
v -2.283410 -5.554300 0.000000
v 0.000000 -5.554300 2.283410
v 0.000000 -5.554300 -2.283410
v 2.283410 -5.554300 0.000000
v 0.000000 7.573056 2.489005
v 0.000000 2.595048 2.489005
v 2.489005 7.573056 -0.000000
v 2.489005 5.084052 -2.489005
v -2.489005 5.084052 -2.489005
v -2.489005 7.573056 0.000000
v -2.489005 5.084052 2.489005
v -2.489005 2.595048 0.000000
v -0.000000 2.595047 -2.489005
v -0.000000 7.573056 -2.489005
v 2.489005 5.084052 2.489005
v 2.489005 2.595048 0.000000
v -0.584808 3.243585 -0.000000
v -0.000000 3.243585 0.584808
v -0.000000 3.243586 -0.584808
v 0.584808 3.243586 -0.000000
v 0.000000 -5.956645 -0.000000
v -0.000000 3.729795 -0.000000
v 1.695888 -5.101899 0.000000
v 0.706779 -2.620861 0.000000
v 0.612799 -0.062332 -0.000000
v 0.610502 1.091815 0.000000
v 0.610502 2.182001 0.000000
v -0.000000 -5.101899 -1.695888
v 0.000000 -2.620861 -0.706779
v 0.000000 -0.062332 -0.612799
v 0.000000 1.091815 -0.610502
v 0.000000 2.182001 -0.610502
v 0.000000 -5.101899 1.695888
v -0.000000 -2.620861 0.706779
v -0.000000 -0.062332 0.612799
v -0.000000 1.091815 0.610502
v -0.000000 2.182001 0.610502
v -1.695888 -5.101899 0.000000
v -0.706779 -2.620861 -0.000000
v -0.612799 -0.062332 -0.000000
v -0.610502 1.091816 -0.000000
v -0.610502 2.182001 -0.000000
v -2.313698 -5.799537 0.000000
v 0.000000 -5.799537 2.313698
v 0.000000 -5.799536 -2.313697
v 2.313698 -5.799536 -0.000000
v -0.000000 8.511947 -0.000000
v 0.000000 1.656157 -0.000000
v -3.427895 5.084052 -0.000000
v -0.000000 5.084052 3.427895
v 3.427895 5.084052 -0.000000
v 0.000000 5.084052 -3.427895
vn -0.9350 0.0472 0.3514
vn -0.8686 0.3936 0.3008
vn -0.8686 0.3936 -0.3008
vn -0.9350 0.0472 -0.3514
vn 0.3514 0.0472 0.9350
vn 0.3008 0.3936 0.8686
vn -0.3008 0.3936 0.8686
vn -0.3514 0.0472 0.9350
vn -0.3514 0.0472 -0.9350
vn -0.3008 0.3936 -0.8686
vn 0.3008 0.3936 -0.8686
vn 0.3514 0.0472 -0.9350
vn 0.9350 0.0472 -0.3514
vn 0.8686 0.3936 -0.3008
vn 0.8686 0.3936 0.3008
vn 0.9350 0.0472 0.3514
vn -0.0213 -0.9995 -0.0213
vn 0.0213 -0.9995 -0.0213
vn 0.0213 -0.9995 0.0213
vn -0.0213 -0.9995 0.0213
vn 0.2586 0.9307 -0.2586
vn -0.2586 0.9307 -0.2586
vn -0.2586 0.9307 0.2586
vn 0.2586 0.9307 0.2586
vn 0.5947 0.7724 -0.2230
vn 0.7789 0.5550 -0.2921
vn 0.7789 0.5550 0.2921
vn 0.5947 0.7724 0.2230
vn 0.9188 0.1927 -0.3445
vn 0.9353 0.0465 -0.3507
vn 0.9353 0.0465 0.3507
vn 0.9188 0.1927 0.3445
vn 0.9362 0.0152 -0.3511
vn 0.9363 0.0035 -0.3511
vn 0.9363 0.0035 0.3511
vn 0.9362 0.0152 0.3511
vn 0.9363 -0.0000 -0.3511
vn 0.9363 -0.0000 0.3511
vn -0.2230 0.7724 -0.5947
vn -0.2921 0.5550 -0.7789
vn 0.2921 0.5550 -0.7789
vn 0.2230 0.7724 -0.5947
vn -0.3445 0.1927 -0.9188
vn -0.3507 0.0465 -0.9353
vn 0.3507 0.0465 -0.9353
vn 0.3445 0.1927 -0.9188
vn -0.3511 0.0152 -0.9362
vn -0.3511 0.0035 -0.9363
vn 0.3511 0.0035 -0.9363
vn 0.3511 0.0152 -0.9362
vn -0.3511 -0.0000 -0.9363
vn 0.3511 -0.0000 -0.9363
vn 0.2230 0.7724 0.5947
vn 0.2921 0.5550 0.7789
vn -0.2921 0.5550 0.7789
vn -0.2230 0.7724 0.5947
vn 0.3445 0.1927 0.9188
vn 0.3507 0.0465 0.9353
vn -0.3507 0.0465 0.9353
vn -0.3445 0.1927 0.9188
vn 0.3511 0.0152 0.9362
vn 0.3511 0.0035 0.9363
vn -0.3511 0.0035 0.9363
vn -0.3511 0.0152 0.9362
vn 0.3511 -0.0000 0.9363
vn -0.3511 -0.0000 0.9363
vn -0.5947 0.7724 0.2230
vn -0.7789 0.5550 0.2921
vn -0.7789 0.5550 -0.2921
vn -0.5947 0.7724 -0.2230
vn -0.9188 0.1927 0.3445
vn -0.9353 0.0465 0.3507
vn -0.9353 0.0465 -0.3507
vn -0.9188 0.1927 -0.3445
vn -0.9362 0.0152 0.3511
vn -0.9363 0.0035 0.3511
vn -0.9363 0.0035 -0.3511
vn -0.9362 0.0152 -0.3511
vn -0.9363 -0.0000 0.3511
vn -0.9363 -0.0000 -0.3511
vn -0.1705 -0.9837 0.0576
vn -0.9298 0.1195 0.3480
vn -0.9298 0.1195 -0.3480
vn -0.1705 -0.9837 -0.0576
vn 0.0576 -0.9837 0.1705
vn 0.3480 0.1195 0.9298
vn -0.3480 0.1195 0.9298
vn -0.0576 -0.9837 0.1705
vn -0.0576 -0.9837 -0.1705
vn -0.3480 0.1195 -0.9298
vn 0.3480 0.1195 -0.9298
vn 0.0576 -0.9837 -0.1705
vn 0.1705 -0.9837 -0.0576
vn 0.9298 0.1195 -0.3480
vn 0.9298 0.1195 0.3480
vn 0.1705 -0.9837 0.0576
vn 0.3061 0.9015 -0.3061
vn -0.3061 0.9015 -0.3061
vn -0.3061 0.9015 0.3061
vn 0.3061 0.9015 0.3061
vn -0.3061 -0.9015 -0.3061
vn 0.3061 -0.9015 -0.3061
vn 0.3061 -0.9015 0.3061
vn -0.3061 -0.9015 0.3061
vn -0.9015 -0.3061 0.3061
vn -0.9015 0.3061 0.3061
vn -0.9015 0.3061 -0.3061
vn -0.9015 -0.3061 -0.3061
vn 0.3061 -0.3061 0.9015
vn 0.3061 0.3061 0.9015
vn -0.3061 0.3061 0.9015
vn -0.3061 -0.3061 0.9015
vn 0.9015 -0.3061 -0.3061
vn 0.9015 0.3061 -0.3061
vn 0.9015 0.3061 0.3061
vn 0.9015 -0.3061 0.3061
vn -0.3061 -0.3061 -0.9015
vn -0.3061 0.3061 -0.9015
vn 0.3061 0.3061 -0.9015
vn 0.3061 -0.3061 -0.9015
vt 0.583333 0.000000
vt 0.604167 0.000000
vt 0.604167 0.125000
vt 0.583333 0.125000
vt 0.625000 0.000000
vt 0.625000 0.125000
vt 0.625000 0.250000
vt 0.604167 0.250000
vt 0.583333 0.250000
vt 0.604167 0.375000
vt 0.583333 0.375000
vt 0.625000 0.375000
vt 0.625000 0.500000
vt 0.604167 0.500000
vt 0.583333 0.500000
vt 0.604167 0.625000
vt 0.583333 0.625000
vt 0.625000 0.625000
vt 0.625000 0.750000
vt 0.604167 0.750000
vt 0.583333 0.750000
vt 0.604167 0.875000
vt 0.583333 0.875000
vt 0.625000 0.875000
vt 0.625000 1.000000
vt 0.604167 1.000000
vt 0.583333 1.000000
vt 0.125000 0.500000
vt 0.250000 0.500000
vt 0.250000 0.625000
vt 0.125000 0.625000
vt 0.375000 0.500000
vt 0.375000 0.625000
vt 0.375000 0.750000
vt 0.250000 0.750000
vt 0.125000 0.750000
vt 0.750000 0.500000
vt 0.750000 0.625000
vt 0.875000 0.500000
vt 0.875000 0.625000
vt 0.875000 0.750000
vt 0.750000 0.750000
vt 0.625000 0.750000
vt 0.393752 0.750000
vt 0.400701 0.750000
vt 0.400585 0.875000
vt 0.393926 0.875000
vt 0.411815 0.750000
vt 0.411179 0.875000
vt 0.404180 1.000000
vt 0.400007 1.000000
vt 0.395833 1.000000
vt 0.431951 0.750000
vt 0.431835 0.875000
vt 0.456252 0.750000
vt 0.456426 0.875000
vt 0.458333 1.000000
vt 0.431257 1.000000
vt 0.478907 0.750000
vt 0.478950 0.875000
vt 0.500000 0.750000
vt 0.500000 0.875000
vt 0.500000 1.000000
vt 0.479167 1.000000
vt 0.520833 0.750000
vt 0.520833 0.875000
vt 0.541667 0.750000
vt 0.541667 0.875000
vt 0.541667 1.000000
vt 0.520833 1.000000
vt 0.562500 0.750000
vt 0.562500 0.875000
vt 0.562500 1.000000
vt 0.395833 0.500000
vt 0.400007 0.500000
vt 0.400585 0.625000
vt 0.393926 0.625000
vt 0.404180 0.500000
vt 0.411179 0.625000
vt 0.431257 0.500000
vt 0.431835 0.625000
vt 0.458333 0.500000
vt 0.456426 0.625000
vt 0.479167 0.500000
vt 0.478950 0.625000
vt 0.500000 0.500000
vt 0.500000 0.625000
vt 0.520833 0.500000
vt 0.520833 0.625000
vt 0.541667 0.500000
vt 0.541667 0.625000
vt 0.562500 0.500000
vt 0.562500 0.625000
vt 0.395833 0.250000
vt 0.400007 0.250000
vt 0.400470 0.375000
vt 0.394099 0.375000
vt 0.404180 0.250000
vt 0.410542 0.375000
vt 0.404181 0.500000
vt 0.400007 0.500000
vt 0.395833 0.500000
vt 0.431257 0.250000
vt 0.431720 0.375000
vt 0.458333 0.250000
vt 0.456599 0.375000
vt 0.458333 0.500000
vt 0.431257 0.500000
vt 0.479167 0.250000
vt 0.478993 0.375000
vt 0.500000 0.250000
vt 0.500000 0.375000
vt 0.479167 0.500000
vt 0.520833 0.250000
vt 0.520833 0.375000
vt 0.541667 0.250000
vt 0.541667 0.375000
vt 0.541667 0.500000
vt 0.520833 0.500000
vt 0.562500 0.250000
vt 0.562500 0.375000
vt 0.395833 0.000000
vt 0.400007 0.000000
vt 0.400470 0.125000
vt 0.394099 0.125000
vt 0.404181 0.000000
vt 0.410542 0.125000
vt 0.431257 0.000000
vt 0.431720 0.125000
vt 0.458333 0.000000
vt 0.456599 0.125000
vt 0.479167 0.000000
vt 0.478993 0.125000
vt 0.500000 0.000000
vt 0.500000 0.125000
vt 0.520833 0.000000
vt 0.520833 0.125000
vt 0.541667 0.000000
vt 0.541667 0.125000
vt 0.562500 0.000000
vt 0.562500 0.125000
vt 0.375000 0.000000
vt 0.385417 0.000000
vt 0.385243 0.125000
vt 0.375000 0.125000
vt 0.385417 0.250000
vt 0.375000 0.250000
vt 0.385243 0.375000
vt 0.375000 0.375000
vt 0.385417 0.500000
vt 0.385417 0.500000
vt 0.385200 0.625000
vt 0.385157 0.750000
vt 0.375000 0.750000
vt 0.385200 0.875000
vt 0.375000 0.875000
vt 0.385417 1.000000
vt 0.375000 1.000000
vt 0.500000 0.000000
vt 0.500000 0.125000
vt 0.500000 0.250000
vt 0.500000 0.375000
vt 0.500000 0.500000
vt 0.500000 0.625000
vt 0.500000 0.750000
vt 0.500000 0.875000
vt 0.500000 1.000000
s 0
usemtl Material
f 18/1/1 45/2/1 113/3/1 92/4/1
f 45/2/2 4/5/2 44/6/2 113/3/2
f 113/3/3 44/6/3 2/7/3 53/8/3
f 92/4/4 113/3/4 53/8/4 9/9/4
f 24/9/5 68/8/5 114/10/5 87/11/5
f 68/8/6 1/7/6 52/12/6 114/10/6
f 114/10/7 52/12/7 4/13/7 45/14/7
f 87/11/8 114/10/8 45/14/8 18/15/8
f 9/15/9 53/14/9 115/16/9 82/17/9
f 53/14/10 2/13/10 49/18/10 115/16/10
f 115/16/11 49/18/11 8/19/11 63/20/11
f 82/17/12 115/16/12 63/20/12 19/21/12
f 19/21/13 63/20/13 116/22/13 77/23/13
f 63/20/14 8/19/14 43/24/14 116/22/14
f 116/22/15 43/24/15 1/25/15 68/26/15
f 77/23/16 116/22/16 68/26/16 24/27/16
f 3/28/17 42/29/17 117/30/17 48/31/17
f 42/29/18 7/32/18 46/33/18 117/30/18
f 117/30/19 46/33/19 5/34/19 51/35/19
f 48/31/20 117/30/20 51/35/20 6/36/20
f 8/13/21 49/37/21 118/38/21 43/18/21
f 49/37/22 2/39/22 44/40/22 118/38/22
f 118/38/23 44/40/23 4/41/23 52/42/23
f 43/18/24 118/38/24 52/42/24 1/43/24
f 30/44/25 94/45/25 119/46/25 100/47/25
f 94/45/26 23/48/26 73/49/26 119/46/26
f 119/46/27 73/49/27 28/50/27 95/51/27
f 100/47/28 119/46/28 95/51/28 31/52/28
f 23/48/29 67/53/29 120/54/29 73/49/29
f 67/53/30 22/55/30 74/56/30 120/54/30
f 120/54/31 74/56/31 27/57/31 72/58/31
f 73/49/32 120/54/32 72/58/32 28/50/32
f 22/55/33 66/59/33 121/60/33 74/56/33
f 66/59/34 21/61/34 75/62/34 121/60/34
f 121/60/35 75/62/35 26/63/35 71/64/35
f 74/56/36 121/60/36 71/64/36 27/57/36
f 21/61/37 65/65/37 122/66/37 75/62/37
f 65/65/37 20/67/37 76/68/37 122/66/37
f 122/66/38 76/68/38 25/69/38 70/70/38
f 75/62/38 122/66/38 70/70/38 26/63/38
f 20/67/37 64/71/37 123/72/37 76/68/37
f 64/71/37 19/21/37 77/23/37 123/72/37
f 123/72/38 77/23/38 24/27/38 69/73/38
f 76/68/38 123/72/38 69/73/38 25/69/38
f 29/74/39 93/75/39 124/76/39 99/77/39
f 93/75/40 13/78/40 78/79/40 124/76/40
f 124/76/41 78/79/41 23/48/41 94/45/41
f 99/77/42 124/76/42 94/45/42 30/44/42
f 13/78/43 57/80/43 125/81/43 78/79/43
f 57/80/44 12/82/44 79/83/44 125/81/44
f 125/81/45 79/83/45 22/55/45 67/53/45
f 78/79/46 125/81/46 67/53/46 23/48/46
f 12/82/47 56/84/47 126/85/47 79/83/47
f 56/84/48 11/86/48 80/87/48 126/85/48
f 126/85/49 80/87/49 21/61/49 66/59/49
f 79/83/50 126/85/50 66/59/50 22/55/50
f 11/86/51 55/88/51 127/89/51 80/87/51
f 55/88/51 10/90/51 81/91/51 127/89/51
f 127/89/52 81/91/52 20/67/52 65/65/52
f 80/87/52 127/89/52 65/65/52 21/61/52
f 10/90/51 54/92/51 128/93/51 81/91/51
f 54/92/51 9/15/51 82/17/51 128/93/51
f 128/93/52 82/17/52 19/21/52 64/71/52
f 81/91/52 128/93/52 64/71/52 20/67/52
f 31/94/53 95/95/53 129/96/53 98/97/53
f 95/95/54 28/98/54 83/99/54 129/96/54
f 129/96/55 83/99/55 14/100/55 58/101/55
f 98/97/56 129/96/56 58/101/56 32/102/56
f 28/98/57 72/103/57 130/104/57 83/99/57
f 72/103/58 27/105/58 84/106/58 130/104/58
f 130/104/59 84/106/59 15/107/59 59/108/59
f 83/99/60 130/104/60 59/108/60 14/100/60
f 27/105/61 71/109/61 131/110/61 84/106/61
f 71/109/62 26/111/62 85/112/62 131/110/62
f 131/110/63 85/112/63 16/86/63 60/113/63
f 84/106/64 131/110/64 60/113/64 15/107/64
f 26/111/65 70/114/65 132/115/65 85/112/65
f 70/114/65 25/116/65 86/117/65 132/115/65
f 132/115/66 86/117/66 17/118/66 61/119/66
f 85/112/66 132/115/66 61/119/66 16/86/66
f 25/116/65 69/120/65 133/121/65 86/117/65
f 69/120/65 24/9/65 87/11/65 133/121/65
f 133/121/66 87/11/66 18/15/66 62/92/66
f 86/117/66 133/121/66 62/92/66 17/118/66
f 32/122/67 58/123/67 134/124/67 97/125/67
f 58/123/68 14/126/68 88/127/68 134/124/68
f 134/124/69 88/127/69 13/98/69 93/95/69
f 97/125/70 134/124/70 93/95/70 29/94/70
f 14/126/71 59/128/71 135/129/71 88/127/71
f 59/128/72 15/130/72 89/131/72 135/129/72
f 135/129/73 89/131/73 12/105/73 57/103/73
f 88/127/74 135/129/74 57/103/74 13/98/74
f 15/130/75 60/132/75 136/133/75 89/131/75
f 60/132/76 16/134/76 90/135/76 136/133/76
f 136/133/77 90/135/77 11/111/77 56/109/77
f 89/131/78 136/133/78 56/109/78 12/105/78
f 16/134/79 61/136/79 137/137/79 90/135/79
f 61/136/79 17/138/79 91/139/79 137/137/79
f 137/137/80 91/139/80 10/116/80 55/114/80
f 90/135/80 137/137/80 55/114/80 11/111/80
f 17/138/79 62/140/79 138/141/79 91/139/79
f 62/140/79 18/1/79 92/4/79 138/141/79
f 138/141/80 92/4/80 9/9/80 54/120/80
f 91/139/80 138/141/80 54/120/80 10/116/80
f 6/142/81 96/143/81 139/144/81 48/145/81
f 96/143/82 32/122/82 97/125/82 139/144/82
f 139/144/83 97/125/83 29/94/83 41/146/83
f 48/145/84 139/144/84 41/146/84 3/147/84
f 5/147/85 50/146/85 140/148/85 51/149/85
f 50/146/86 31/94/86 98/97/86 140/148/86
f 140/148/87 98/97/87 32/102/87 96/150/87
f 51/149/88 140/148/88 96/150/88 6/32/88
f 3/32/89 41/151/89 141/152/89 42/33/89
f 41/151/90 29/74/90 99/77/90 141/152/90
f 141/152/91 99/77/91 30/44/91 47/153/91
f 42/33/92 141/152/92 47/153/92 7/154/92
f 7/154/93 47/153/93 142/155/93 46/156/93
f 47/153/94 30/44/94 100/47/94 142/155/94
f 142/155/95 100/47/95 31/52/95 50/157/95
f 46/156/96 142/155/96 50/157/96 5/158/96
f 33/142/97 110/159/97 143/160/97 103/145/97
f 110/159/98 37/5/98 106/6/98 143/160/98
f 143/160/99 106/6/99 39/7/99 101/161/99
f 103/145/100 143/160/100 101/161/100 35/147/100
f 38/147/101 109/161/101 144/162/101 108/149/101
f 109/161/102 34/7/102 112/12/102 144/162/102
f 144/162/103 112/12/103 36/13/103 102/163/103
f 108/149/104 144/162/104 102/163/104 40/32/104
f 40/32/105 107/163/105 145/164/105 108/33/105
f 107/163/106 39/13/106 106/18/106 145/164/106
f 145/164/107 106/18/107 37/43/107 105/165/107
f 108/33/108 145/164/108 105/165/108 38/34/108
f 36/34/109 111/165/109 146/166/109 102/156/109
f 111/165/110 35/43/110 101/24/110 146/166/110
f 146/166/111 101/24/111 39/25/111 107/167/111
f 102/156/112 146/166/112 107/167/112 40/158/112
f 34/28/113 104/29/113 147/30/113 112/31/113
f 104/29/114 33/32/114 103/33/114 147/30/114
f 147/30/115 103/33/115 35/34/115 111/35/115
f 112/31/116 147/30/116 111/35/116 36/36/116
f 38/13/117 105/37/117 148/38/117 109/18/117
f 105/37/118 37/39/118 110/40/118 148/38/118
f 148/38/119 110/40/119 33/41/119 104/42/119
f 109/18/120 148/38/120 104/42/120 34/43/120
